<svg width="32" height="32" viewBox="0 0 32 32" fill="none" xmlns="http://www.w3.org/2000/svg">
<path d="M0 8.42105C0 3.77023 3.77023 0 8.42105 0H23.5789C28.2298 0 32 3.77023 32 8.42105V23.5789C32 28.2298 28.2298 32 23.5789 32H8.42105C3.77023 32 0 28.2298 0 23.5789V8.42105Z" fill="#3C50E0"/>
<g filter="url(#filter0_d_2_39)">
<path d="M8.42139 8.42127C8.42139 7.49111 9.17543 6.73706 10.1056 6.73706C11.0358 6.73706 11.7898 7.49111 11.7898 8.42127V23.5792C11.7898 24.5093 11.0358 25.2634 10.1056 25.2634C9.17543 25.2634 8.42139 24.5093 8.42139 23.5792V8.42127Z" fill="white"/>
</g>
<g filter="url(#filter1_d_2_39)">
<path d="M18 8.68421C18 7.75405 18.754 7 19.6842 7C20.6144 7 21.3684 7.75405 21.3684 8.68421V23.8421C21.3684 24.7722 20.6144 25.5263 19.6842 25.5263C18.754 25.5263 18 24.7722 18 23.8421V8.68421Z" fill="white"/>
</g>
<g opacity="0.9" filter="url(#filter2_d_2_39)">
<path d="M11.6842 10.3684C10.754 10.3684 10 9.6143 10 8.6842C10 7.754 10.754 7 11.6842 7H20.1052C21.0354 7 21.7895 7.754 21.7895 8.6842C21.7895 9.6143 21.0354 10.3684 20.1052 10.3684H11.6842Z" fill="white"/>
</g>
<g opacity="0.9" filter="url(#filter3_d_2_39)">
<path d="M11.6842 19.3684C10.754 19.3684 10 18.6143 10 17.6842C10 16.754 10.754 16 11.6842 16H20.1052C21.0354 16 21.7895 16.754 21.7895 17.6842C21.7895 18.6143 21.0354 19.3684 20.1052 19.3684H11.6842Z" fill="white"/>
</g>
<defs>
<filter id="filter0_d_2_39" x="7.42139" y="6.23706" width="5.36841" height="20.5263" filterUnits="userSpaceOnUse" color-interpolation-filters="sRGB">
<feFlood flood-opacity="0" result="BackgroundImageFix"/>
<feColorMatrix in="SourceAlpha" type="matrix" values="0 0 0 0 0 0 0 0 0 0 0 0 0 0 0 0 0 0 127 0" result="hardAlpha"/>
<feOffset dy="0.5"/>
<feGaussianBlur stdDeviation="0.5"/>
<feComposite in2="hardAlpha" operator="out"/>
<feColorMatrix type="matrix" values="0 0 0 0 0 0 0 0 0 0 0 0 0 0 0 0 0 0 0.12 0"/>
<feBlend mode="normal" in2="BackgroundImageFix" result="effect1_dropShadow_2_39"/>
<feBlend mode="normal" in="SourceGraphic" in2="effect1_dropShadow_2_39" result="shape"/>
</filter>
<filter id="filter1_d_2_39" x="17" y="6.5" width="5.36841" height="20.5263" filterUnits="userSpaceOnUse" color-interpolation-filters="sRGB">
<feFlood flood-opacity="0" result="BackgroundImageFix"/>
<feColorMatrix in="SourceAlpha" type="matrix" values="0 0 0 0 0 0 0 0 0 0 0 0 0 0 0 0 0 0 127 0" result="hardAlpha"/>
<feOffset dy="0.5"/>
<feGaussianBlur stdDeviation="0.5"/>
<feComposite in2="hardAlpha" operator="out"/>
<feColorMatrix type="matrix" values="0 0 0 0 0 0 0 0 0 0 0 0 0 0 0 0 0 0 0.12 0"/>
<feBlend mode="normal" in2="BackgroundImageFix" result="effect1_dropShadow_2_39"/>
<feBlend mode="normal" in="SourceGraphic" in2="effect1_dropShadow_2_39" result="shape"/>
</filter>
<filter id="filter2_d_2_39" x="9" y="6.5" width="13.7895" height="5.3684" filterUnits="userSpaceOnUse" color-interpolation-filters="sRGB">
<feFlood flood-opacity="0" result="BackgroundImageFix"/>
<feColorMatrix in="SourceAlpha" type="matrix" values="0 0 0 0 0 0 0 0 0 0 0 0 0 0 0 0 0 0 127 0" result="hardAlpha"/>
<feOffset dy="0.5"/>
<feGaussianBlur stdDeviation="0.5"/>
<feComposite in2="hardAlpha" operator="out"/>
<feColorMatrix type="matrix" values="0 0 0 0 0 0 0 0 0 0 0 0 0 0 0 0 0 0 0.12 0"/>
<feBlend mode="normal" in2="BackgroundImageFix" result="effect1_dropShadow_2_39"/>
<feBlend mode="normal" in="SourceGraphic" in2="effect1_dropShadow_2_39" result="shape"/>
</filter>
<filter id="filter3_d_2_39" x="9" y="15.5" width="13.7895" height="5.3684" filterUnits="userSpaceOnUse" color-interpolation-filters="sRGB">
<feFlood flood-opacity="0" result="BackgroundImageFix"/>
<feColorMatrix in="SourceAlpha" type="matrix" values="0 0 0 0 0 0 0 0 0 0 0 0 0 0 0 0 0 0 127 0" result="hardAlpha"/>
<feOffset dy="0.5"/>
<feGaussianBlur stdDeviation="0.5"/>
<feComposite in2="hardAlpha" operator="out"/>
<feColorMatrix type="matrix" values="0 0 0 0 0 0 0 0 0 0 0 0 0 0 0 0 0 0 0.12 0"/>
<feBlend mode="normal" in2="BackgroundImageFix" result="effect1_dropShadow_2_39"/>
<feBlend mode="normal" in="SourceGraphic" in2="effect1_dropShadow_2_39" result="shape"/>
</filter>
</defs>
</svg>
