<svg width="139" height="32" viewBox="0 0 139 32" fill="none" xmlns="http://www.w3.org/2000/svg">
<path d="M0 8.42105C0 3.77023 3.77023 0 8.42105 0H23.5789C28.2298 0 32 3.77023 32 8.42105V23.5789C32 28.2298 28.2298 32 23.5789 32H8.42105C3.77023 32 0 28.2298 0 23.5789V8.42105Z" fill="#3C50E0"/>
<g filter="url(#filter0_d_2_26)">
<path d="M8.42139 8.42127C8.42139 7.49111 9.17543 6.73706 10.1056 6.73706C11.0358 6.73706 11.7898 7.49111 11.7898 8.42127V23.5792C11.7898 24.5093 11.0358 25.2634 10.1056 25.2634C9.17543 25.2634 8.42139 24.5093 8.42139 23.5792V8.42127Z" fill="white"/>
</g>
<g filter="url(#filter1_d_2_26)">
<path d="M18 8.68421C18 7.75405 18.754 7 19.6842 7C20.6144 7 21.3684 7.75405 21.3684 8.68421V23.8421C21.3684 24.7722 20.6144 25.5263 19.6842 25.5263C18.754 25.5263 18 24.7722 18 23.8421V8.68421Z" fill="white"/>
</g>
<path d="M39.6328 25H36.5391L42.1719 9H45.75L51.3906 25H48.2969L44.0234 12.2812H43.8984L39.6328 25ZM39.7344 18.7266H48.1719V21.0547H39.7344V18.7266ZM57.4609 25.2109C56.5182 25.2109 55.6745 24.9688 54.9297 24.4844C54.1849 24 53.5964 23.2969 53.1641 22.375C52.7318 21.4531 52.5156 20.3333 52.5156 19.0156C52.5156 17.6823 52.7344 16.5573 53.1719 15.6406C53.6146 14.7187 54.2109 14.0234 54.9609 13.5547C55.7109 13.0807 56.5469 12.8438 57.4688 12.8438C58.1719 12.8438 58.75 12.9635 59.2031 13.2031C59.6563 13.4375 60.0156 13.7214 60.2813 14.0547C60.5469 14.3828 60.7526 14.6927 60.8984 14.9844H61.0156V9H63.8516V25H61.0703V23.1094H60.8984C60.7526 23.401 60.5417 23.7109 60.2656 24.0391C59.9896 24.362 59.625 24.638 59.1719 24.8672C58.7188 25.0964 58.1484 25.2109 57.4609 25.2109ZM58.25 22.8906C58.849 22.8906 59.3594 22.7292 59.7812 22.4062C60.2031 22.0781 60.5234 21.6224 60.7422 21.0391C60.9609 20.4557 61.0703 19.776 61.0703 19C61.0703 18.224 60.9609 17.5495 60.7422 16.9766C60.5286 16.4036 60.2109 15.9583 59.7891 15.6406C59.3724 15.3229 58.8594 15.1641 58.25 15.1641C57.6198 15.1641 57.0938 15.3281 56.6719 15.6562C56.25 15.9844 55.9323 16.4375 55.7188 17.0156C55.5052 17.5937 55.3984 18.2552 55.3984 19C55.3984 19.75 55.5052 20.4193 55.7188 21.0078C55.9375 21.5911 56.2578 22.0521 56.6797 22.3906C57.1068 22.724 57.6302 22.8906 58.25 22.8906ZM66.8652 25V13H69.5684V15.0391H69.709C69.959 14.3516 70.373 13.8151 70.9512 13.4297C71.5293 13.0391 72.2194 12.8438 73.0215 12.8438C73.834 12.8438 74.5189 13.0417 75.0762 13.4375C75.6387 13.8281 76.0345 14.362 76.2637 15.0391H76.3887C76.6543 14.3724 77.1022 13.8411 77.7324 13.4453C78.3678 13.0443 79.1204 12.8438 79.9902 12.8438C81.0944 12.8438 81.9954 13.1927 82.6934 13.8906C83.3913 14.5885 83.7402 15.6068 83.7402 16.9453V25H80.9043V17.3828C80.9043 16.638 80.7064 16.0937 80.3105 15.75C79.9147 15.401 79.4303 15.2266 78.8574 15.2266C78.1751 15.2266 77.6413 15.4401 77.2559 15.8672C76.8757 16.2891 76.6855 16.8385 76.6855 17.5156V25H73.9121V17.2656C73.9121 16.6458 73.7246 16.151 73.3496 15.7812C72.9798 15.4115 72.4954 15.2266 71.8965 15.2266C71.4902 15.2266 71.1204 15.3307 70.7871 15.5391C70.4538 15.7422 70.1882 16.0312 69.9902 16.4062C69.7923 16.776 69.6934 17.2083 69.6934 17.7031V25H66.8652ZM86.6094 25V13H89.4375V25H86.6094ZM88.0313 11.2969C87.5833 11.2969 87.1979 11.1484 86.875 10.8516C86.5521 10.5495 86.3906 10.1875 86.3906 9.76562C86.3906 9.33854 86.5521 8.97656 86.875 8.67969C87.1979 8.3776 87.5833 8.22656 88.0313 8.22656C88.4844 8.22656 88.8698 8.3776 89.1875 8.67969C89.5104 8.97656 89.6719 9.33854 89.6719 9.76562C89.6719 10.1875 89.5104 10.5495 89.1875 10.8516C88.8698 11.1484 88.4844 11.2969 88.0313 11.2969ZM98.3379 13V15.1875H91.4395V13H98.3379ZM93.1426 10.125H95.9707V21.3906C95.9707 21.7708 96.028 22.0625 96.1426 22.2656C96.2624 22.4635 96.4186 22.599 96.6113 22.6719C96.804 22.7448 97.0176 22.7812 97.252 22.7812C97.429 22.7812 97.5905 22.7682 97.7363 22.7422C97.8874 22.7161 98.002 22.6927 98.0801 22.6719L98.5566 24.8828C98.4056 24.9349 98.1895 24.9922 97.9082 25.0547C97.6322 25.1172 97.2936 25.1536 96.8926 25.1641C96.1842 25.1849 95.5462 25.0781 94.9785 24.8437C94.4108 24.6042 93.9603 24.2344 93.627 23.7344C93.2988 23.2344 93.1374 22.6094 93.1426 21.8594V10.125ZM101.086 9H104.633L109.383 20.5937H109.57L114.32 9H117.867V25H115.086V14.0078H114.938L110.516 24.9531H108.438L104.016 13.9844H103.867V25H101.086V9ZM126.211 25.2344C125.008 25.2344 123.969 24.9844 123.094 24.4844C122.224 23.9792 121.555 23.2656 121.086 22.3437C120.617 21.4167 120.383 20.3255 120.383 19.0703C120.383 17.8359 120.617 16.7526 121.086 15.8203C121.56 14.8828 122.221 14.1536 123.07 13.6328C123.919 13.1068 124.917 12.8438 126.062 12.8438C126.802 12.8438 127.5 12.9635 128.156 13.2031C128.818 13.4375 129.401 13.8021 129.906 14.2969C130.417 14.7917 130.818 15.4219 131.109 16.1875C131.401 16.9479 131.547 17.8542 131.547 18.9062V19.7734H121.711V17.8672H128.836C128.831 17.3255 128.714 16.8437 128.484 16.4219C128.255 15.9948 127.935 15.6589 127.523 15.4141C127.117 15.1693 126.643 15.0469 126.102 15.0469C125.523 15.0469 125.016 15.1875 124.578 15.4687C124.141 15.7448 123.799 16.1094 123.555 16.5625C123.315 17.0104 123.193 17.5026 123.188 18.0391V19.7031C123.188 20.401 123.315 21 123.57 21.5C123.826 21.9948 124.182 22.375 124.641 22.6406C125.099 22.901 125.635 23.0312 126.25 23.0312C126.661 23.0312 127.034 22.974 127.367 22.8594C127.701 22.7396 127.99 22.5651 128.234 22.3359C128.479 22.1068 128.664 21.8229 128.789 21.4844L131.43 21.7812C131.263 22.4792 130.945 23.0885 130.477 23.6094C130.013 24.125 129.419 24.526 128.695 24.8125C127.971 25.0937 127.143 25.2344 126.211 25.2344Z" fill="white"/>
<g opacity="0.9" filter="url(#filter2_d_2_26)">
<path d="M11.6842 10.3684C10.754 10.3684 10 9.6143 10 8.6842C10 7.754 10.754 7 11.6842 7H20.1052C21.0354 7 21.7895 7.754 21.7895 8.6842C21.7895 9.6143 21.0354 10.3684 20.1052 10.3684H11.6842Z" fill="white"/>
</g>
<g opacity="0.9" filter="url(#filter3_d_2_26)">
<path d="M11.6842 19.3684C10.754 19.3684 10 18.6143 10 17.6842C10 16.754 10.754 16 11.6842 16H20.1052C21.0354 16 21.7895 16.754 21.7895 17.6842C21.7895 18.6143 21.0354 19.3684 20.1052 19.3684H11.6842Z" fill="white"/>
</g>
<defs>
<filter id="filter0_d_2_26" x="7.42139" y="6.23706" width="5.36841" height="20.5263" filterUnits="userSpaceOnUse" color-interpolation-filters="sRGB">
<feFlood flood-opacity="0" result="BackgroundImageFix"/>
<feColorMatrix in="SourceAlpha" type="matrix" values="0 0 0 0 0 0 0 0 0 0 0 0 0 0 0 0 0 0 127 0" result="hardAlpha"/>
<feOffset dy="0.5"/>
<feGaussianBlur stdDeviation="0.5"/>
<feComposite in2="hardAlpha" operator="out"/>
<feColorMatrix type="matrix" values="0 0 0 0 0 0 0 0 0 0 0 0 0 0 0 0 0 0 0.12 0"/>
<feBlend mode="normal" in2="BackgroundImageFix" result="effect1_dropShadow_2_26"/>
<feBlend mode="normal" in="SourceGraphic" in2="effect1_dropShadow_2_26" result="shape"/>
</filter>
<filter id="filter1_d_2_26" x="17" y="6.5" width="5.36841" height="20.5263" filterUnits="userSpaceOnUse" color-interpolation-filters="sRGB">
<feFlood flood-opacity="0" result="BackgroundImageFix"/>
<feColorMatrix in="SourceAlpha" type="matrix" values="0 0 0 0 0 0 0 0 0 0 0 0 0 0 0 0 0 0 127 0" result="hardAlpha"/>
<feOffset dy="0.5"/>
<feGaussianBlur stdDeviation="0.5"/>
<feComposite in2="hardAlpha" operator="out"/>
<feColorMatrix type="matrix" values="0 0 0 0 0 0 0 0 0 0 0 0 0 0 0 0 0 0 0.12 0"/>
<feBlend mode="normal" in2="BackgroundImageFix" result="effect1_dropShadow_2_26"/>
<feBlend mode="normal" in="SourceGraphic" in2="effect1_dropShadow_2_26" result="shape"/>
</filter>
<filter id="filter2_d_2_26" x="9" y="6.5" width="13.7895" height="5.3684" filterUnits="userSpaceOnUse" color-interpolation-filters="sRGB">
<feFlood flood-opacity="0" result="BackgroundImageFix"/>
<feColorMatrix in="SourceAlpha" type="matrix" values="0 0 0 0 0 0 0 0 0 0 0 0 0 0 0 0 0 0 127 0" result="hardAlpha"/>
<feOffset dy="0.5"/>
<feGaussianBlur stdDeviation="0.5"/>
<feComposite in2="hardAlpha" operator="out"/>
<feColorMatrix type="matrix" values="0 0 0 0 0 0 0 0 0 0 0 0 0 0 0 0 0 0 0.12 0"/>
<feBlend mode="normal" in2="BackgroundImageFix" result="effect1_dropShadow_2_26"/>
<feBlend mode="normal" in="SourceGraphic" in2="effect1_dropShadow_2_26" result="shape"/>
</filter>
<filter id="filter3_d_2_26" x="9" y="15.5" width="13.7895" height="5.3684" filterUnits="userSpaceOnUse" color-interpolation-filters="sRGB">
<feFlood flood-opacity="0" result="BackgroundImageFix"/>
<feColorMatrix in="SourceAlpha" type="matrix" values="0 0 0 0 0 0 0 0 0 0 0 0 0 0 0 0 0 0 127 0" result="hardAlpha"/>
<feOffset dy="0.5"/>
<feGaussianBlur stdDeviation="0.5"/>
<feComposite in2="hardAlpha" operator="out"/>
<feColorMatrix type="matrix" values="0 0 0 0 0 0 0 0 0 0 0 0 0 0 0 0 0 0 0.12 0"/>
<feBlend mode="normal" in2="BackgroundImageFix" result="effect1_dropShadow_2_26"/>
<feBlend mode="normal" in="SourceGraphic" in2="effect1_dropShadow_2_26" result="shape"/>
</filter>
</defs>
</svg>
